<?xml version="1.0" encoding="utf-8"?>
<!-- Generator: Adobe Illustrator 23.0.3, SVG Export Plug-In . SVG Version: 6.00 Build 0)  -->
<svg version="1.1" id="Layer_1" xmlns="http://www.w3.org/2000/svg" xmlns:xlink="http://www.w3.org/1999/xlink" x="0px" y="0px"
	 viewBox="0 0 1200 1200" enable-background="new 0 0 1200 1200" xml:space="preserve">
<g>
	<g>
		<g>
			<circle fill="#E0D722" cx="514.334" cy="726.642" r="418.68"/>
			<path fill="#22074C" d="M514.334,1150c-233.44,0-423.359-189.918-423.359-423.357c0-233.441,189.918-423.36,423.359-423.36
				s423.359,189.918,423.359,423.36C937.693,960.082,747.774,1150,514.334,1150z M514.334,312.64
				c-228.281,0-414.002,185.721-414.002,414.003c0,228.281,185.721,414,414.002,414s414.002-185.72,414.002-414
				C928.336,498.361,742.615,312.64,514.334,312.64z"/>
		</g>
		<g>
			<path fill="#22074C" d="M360.996,450.777c-3.492-12.806-9.884-27.925-19.458-39.023
				c-56.612,10.42-113.208,62.673-141.473,137.737c-34.678,92.092-14.649,186.48,43.946,222.311
				c8.427-4.269,16.309-9.816,23.415-16.922C344.622,675.346,391.407,560.722,360.996,450.777z"/>
			<path fill="#22074C" d="M243.782,777.517l-2.377-1.453c-61.163-37.405-80.945-135.567-46.013-228.331
				c28.057-74.512,85.068-129.814,145.242-140.889l2.814-0.519l1.87,2.168c11.853,13.739,17.925,31.551,20.491,40.956
				c14.568,52.668,12.316,110.199-6.512,166.37c-17.276,51.539-47.806,100.828-88.289,142.537
				c-7.234,7.235-15.541,13.238-24.742,17.901L243.782,777.517z M339.574,417.229c-55.748,11.675-108.44,63.919-134.836,134.022
				c-32.808,87.124-15.767,178.743,39.5,214.791c7.272-3.977,13.876-8.912,19.658-14.693
				c84.012-86.557,119.395-201.24,92.289-299.241l-0.005-0.017C352.51,438.639,346.527,426.117,339.574,417.229z"/>
		</g>
		<g>
			<path fill="#FFFFFF" d="M397.937,416.282c-18.069-6.804-37.235-8.054-56.399-4.527c9.574,11.097,15.966,26.217,19.458,39.023
				c30.41,109.945-16.375,224.569-93.57,304.103c-7.106,7.106-14.988,12.653-23.415,16.922c5.332,3.261,10.956,6.082,16.916,8.326
				c71.447,26.904,160.037-32.736,197.872-133.209C496.633,546.446,469.384,443.186,397.937,416.282z"/>
			<path fill="#22074C" d="M296.956,791.621c-12.982,0-25.671-2.257-37.789-6.821c-5.987-2.252-11.962-5.193-17.76-8.736
				l-7.637-4.669l7.984-4.046c8.259-4.183,15.709-9.567,22.142-16c84.012-86.557,119.395-201.24,92.289-299.241
				c-3.99-14.627-10.705-28.141-18.427-37.092l-5.689-6.595l8.567-1.576c20.686-3.806,40.555-2.203,59.062,4.764l0,0
				c73.91,27.832,102.52,134.183,63.776,237.071c-18.661,49.556-49.99,91.019-88.216,116.753
				C349.508,782.766,322.663,791.621,296.956,791.621z M254.219,771.756c2.809,1.398,5.639,2.636,8.467,3.698
				c33.002,12.43,70.999,5.928,106.994-18.305c36.52-24.585,66.51-64.357,84.446-111.987
				c36.804-97.737,10.809-198.316-57.948-224.208l0,0c-14.338-5.398-29.623-7.243-45.531-5.495
				c8.409,12.346,13.019,26.13,15.166,34.005c14.564,52.654,12.313,110.185-6.515,166.357
				c-17.276,51.539-47.806,100.828-88.289,142.537C265.922,763.445,260.305,767.925,254.219,771.756z"/>
		</g>
		<g>
			<path fill="#22074C" d="M685.445,505.279c-65.647-6.008-138.269,50.76-171.571,139.198
				c-31.764,84.355-17.637,170.653,29.991,212.1C657.815,787.741,751.159,629.911,685.445,505.279z"/>
			<path fill="#22074C" d="M543.333,862.731l-2.746-2.387c-50.26-43.738-63.166-133.228-31.386-217.626
				c33.449-88.828,107.768-148.723,176.698-142.41l2.698,0.247l1.264,2.396c64.887,123.066-21.769,284.415-143.415,357.9
				L543.333,862.731z M675.77,509.833c-61.886,0-126.841,55.718-157.224,136.402c-29.751,79.012-19.02,162.227,25.891,204.137
				c115.291-71.489,197.159-223.621,137.85-340.331C680.12,509.902,677.946,509.833,675.77,509.833z"/>
		</g>
		<g>
			<path fill="#FFFFFF" d="M711.746,511.267c-8.559-3.223-17.367-5.171-26.301-5.988c65.713,124.632-27.63,282.462-141.58,351.297
				c9.101,7.92,19.409,14.222,30.871,18.538c71.447,26.904,160.037-32.736,197.872-133.209
				C810.443,641.432,783.193,538.172,711.746,511.267z"/>
			<path fill="#22074C" d="M610.373,886.514c-12.736,0.002-25.302-2.172-37.396-6.728c-11.749-4.423-22.647-10.965-32.39-19.443
				l-5.167-4.498l5.864-3.543c117.752-71.133,202.004-226.615,139.744-344.694l-4.291-8.139l9.163,0.838
				c9.563,0.875,18.851,2.991,27.606,6.288h-0.001c73.909,27.831,102.52,134.181,63.777,237.069
				C744.877,829.716,675.462,886.514,610.373,886.514z M552.458,857.129c7.428,5.627,15.487,10.093,24.037,13.314
				c68.753,25.885,154.636-32.56,191.441-130.297c36.803-97.737,10.806-198.314-57.949-224.205h-0.001
				c-5.108-1.925-10.422-3.404-15.879-4.425C749.789,631.341,668.151,783.792,552.458,857.129z"/>
		</g>
		<path fill="#F5A0C5" d="M581.876,966.505c-0.39-13.386,7.153-25.817,16.341-35.559c18.941-20.081,45.512-31.981,72.779-36.289
			c10.707-1.692,21.844-2.259,32.238,0.821s19.994,10.296,23.781,20.454c5.879,15.768-3.425,33.194-14.898,45.505
			C688.252,987.043,584,1039.418,581.876,966.505z"/>
		<path fill="#F5A0C5" d="M118.094,717.366c-1.794-10.963-2.379-22.617,2.092-32.786c4.471-10.169,15.251-18.257,26.212-16.451
			c11.287,1.859,18.56,12.733,23.821,22.891c9.717,18.761,50.562,96.423,14.189,104.532
			C142.28,804.944,123.039,747.593,118.094,717.366z"/>
	</g>
	<path fill="#FE707E" d="M737.476,86.042c-23.187,3.532-38.587,20.087-40.674,22.442c-0.002-0.076-0.808-24.779-18.014-43.222
		c-20.632-22.115-78.818-28.962-92.162,41.125c-14.266,74.938,50.898,162.366,53.242,165.48l0.067,0.025
		c0,0,108.42-27.564,144.342-96.436C817.269,112.197,767.374,81.487,737.476,86.042z"/>
	<path fill="#FE707E" d="M1070.125,462.135c-18.958-0.728-33.714,10.076-35.731,11.628c0.01-0.061,3.135-19.807-7.722-37.079
		c-13.019-20.712-58.196-35.019-79.479,18.622c-22.754,57.354,15.684,136.735,17.072,139.566l0.049,0.03
		c0,0,90.326-5.371,129.359-54.606C1129.524,495.073,1094.569,463.073,1070.125,462.135z"/>
	<path fill="#FE707E" d="M226.223,143c-17.73,15.355-21.927,37.572-22.437,40.677c-0.042-0.064-13.9-20.53-38.29-26.954
		c-29.248-7.703-82.119,17.538-56.026,83.942c27.901,70.999,129.651,110.199,133.294,111.583l0.07-0.015
		c0,0,77.011-81.142,70.665-158.559C307.67,122.567,249.085,123.2,226.223,143z"/>
</g>
</svg>
